<svg width="493" height="342" viewBox="0 0 493 342" fill="none" xmlns="http://www.w3.org/2000/svg">
<g clip-path="url(#clip0_2203_44)" filter="url(#filter0_d_2203_44)">
<path d="M420.377 139.54C427.062 146.577 434.52 147.7 442.752 142.909C439.298 137.353 438.475 131.309 439.396 124.942H423.36C424.071 130.537 423.88 135.746 420.377 139.54Z" fill="#FFB8B8"/>
<path d="M446.854 323.699L455.431 319.208L459.16 271.671V246.592L439.396 246.218L444.989 271.297L446.854 323.699Z" fill="#FFB8B8"/>
<path d="M421.992 323.699L413.415 319.208L409.686 271.671V246.592L429.45 246.218L423.856 271.297L421.992 323.699Z" fill="#FFB8B8"/>
<path d="M408.817 251.832L429.7 249.961L433.056 230.871L437.158 249.587L459.906 248.089C460.403 238.994 459.141 229.634 456.177 220.016L406.206 218.893L408.817 251.832Z" fill="#03183F"/>
<path d="M387.111 180.14L361.991 160.724C361.73 160.523 361.443 160.358 361.138 160.233L357.487 158.742C354.555 157.545 348.969 153.561 351.693 149.46C353.89 146.153 362.297 152.077 363.331 154.271C363.658 154.962 364.194 155.531 364.863 155.898L369.968 158.706C370.092 158.774 370.22 158.835 370.351 158.888L389.787 166.795C390.326 167.015 390.909 167.102 391.488 167.049C392.067 166.997 392.625 166.806 393.116 166.494L396.639 164.251C397.141 163.932 397.712 163.74 398.304 163.693C398.896 163.645 399.49 163.743 400.036 163.978C400.581 164.213 401.062 164.577 401.435 165.041C401.809 165.504 402.065 166.051 402.18 166.636L403.344 172.535C403.512 173.385 403.375 174.266 402.957 175.024C402.539 175.781 401.868 176.366 401.062 176.675L390.641 180.661C390.058 180.885 389.427 180.954 388.808 180.863C388.19 180.772 387.606 180.523 387.111 180.14Z" fill="#FFB8B8"/>
<path d="M391.777 165.994C398.732 164.122 398.002 173.875 403.308 178.67L413.741 170.403L407.698 141.037C406.077 141.502 404.585 142.339 403.342 143.482C402.098 144.625 401.137 146.043 400.533 147.623L391.777 165.994Z" fill="#9C0332"/>
<path d="M404.715 220.765H457.296C448.786 197.747 449.615 174.074 456.86 149.95C456.982 149.549 456.961 149.118 456.8 148.732C456.639 148.346 456.349 148.028 455.98 147.833L440.888 139.915C434.963 143.784 428.596 142.595 421.869 137.294L405.46 141.786C409.927 168.713 410.054 195.087 404.715 220.765Z" fill="#9C0332"/>
<path d="M417.862 332.491L395.95 333.423C394.996 333.464 394.06 333.149 393.324 332.539C392.587 331.928 392.102 331.066 391.96 330.118C391.818 329.161 392.036 328.184 392.574 327.381C393.111 326.577 393.928 326.003 394.865 325.773L398.582 324.858L413.19 316.36C415.354 318.609 418.334 320.511 421.977 322.131L422.02 328.106C422.028 329.235 421.599 330.323 420.824 331.141C420.048 331.959 418.986 332.443 417.862 332.491Z" fill="#03183F"/>
<path d="M488.783 333.5H4.17625V332.298H489L488.783 333.5Z" fill="#3F3D56" fill-opacity="0.4"/>
<path d="M450.801 332.157L472.714 333.089C473.668 333.13 474.604 332.815 475.34 332.204C476.077 331.594 476.562 330.732 476.704 329.784C476.846 328.827 476.628 327.85 476.09 327.047C475.553 326.243 474.736 325.669 473.799 325.439L470.082 324.524L455.474 316.026C453.31 318.275 450.33 320.177 446.687 321.797L446.644 327.772C446.636 328.901 447.065 329.989 447.84 330.807C448.616 331.625 449.677 332.109 450.801 332.157Z" fill="#03183F"/>
<path d="M429.7 131.68C436.291 131.68 441.633 126.317 441.633 119.702C441.633 113.087 436.291 107.724 429.7 107.724C423.109 107.724 417.767 113.087 417.767 119.702C417.767 126.317 423.109 131.68 429.7 131.68Z" fill="#FFB8B8"/>
<path d="M448.346 217.022L444.403 224.716C444.056 225.395 443.855 226.14 443.814 226.903C443.774 227.665 443.895 228.428 444.169 229.14C444.443 229.852 444.864 230.498 445.404 231.036C445.945 231.573 446.592 231.989 447.305 232.257C448.058 232.541 448.866 232.652 449.668 232.581C450.47 232.511 451.246 232.261 451.939 231.85C452.633 231.438 453.225 230.877 453.674 230.206C454.122 229.535 454.416 228.771 454.532 227.972L456.177 216.648L462.144 188.2L461.771 173.977H449.838C453.908 184.556 451.889 200.16 448.346 217.022Z" fill="#FFB8B8"/>
<path d="M447.973 175.474H464.008L461.681 157.822C461.365 155.428 460.457 153.152 459.04 151.201C457.622 149.25 455.741 147.686 453.567 146.652L447.973 175.474Z" fill="#9C0332"/>
<path d="M442.387 113.104C442.625 111.504 442.525 109.872 442.093 108.313C441.661 106.755 440.906 105.305 439.879 104.058C437.843 101.64 434.43 99.6609 428.768 100.595C416.415 102.632 412.853 112.954 414.063 115.55C415.273 118.146 418.983 124.164 418.983 124.164C418.983 124.164 416.26 118.207 419.215 116.994C422.17 115.782 433.605 111.005 437.597 113.157C438.726 113.726 439.686 114.586 440.377 115.649C441.068 116.711 441.466 117.939 441.531 119.206L442.387 113.104Z" fill="#03183F"/>
<path d="M238.139 63.2548L233.341 65.6983C227.815 54.776 220.493 44.867 211.685 36.3878C168.426 -5.35464 99.3993 -3.98991 57.812 39.43C16.2248 82.8499 17.5844 152.134 60.8429 193.877C69.0762 201.838 78.5085 208.445 88.7924 213.457L86.4453 218.316C70.1449 210.372 55.9618 198.649 45.0677 184.115C34.1737 169.581 26.8815 152.653 23.7936 134.731C20.7058 116.809 21.9109 98.4071 27.3094 81.045C32.708 63.6829 42.145 47.8594 54.8407 34.8818C67.5364 21.9042 83.1264 12.1451 100.323 6.41078C117.519 0.676456 135.828 -0.868477 153.736 1.90363C171.645 4.67573 188.64 11.6853 203.316 22.3532C217.992 33.0211 229.928 47.041 238.139 63.2548Z" fill="#E6E6E6"/>
<path d="M75.8174 163.721C68.7602 171.089 64.9081 180.97 65.1087 191.189C65.3092 201.407 69.5459 211.128 76.8867 218.211C84.2275 225.295 94.0711 229.161 104.252 228.96C114.433 228.759 124.117 224.506 131.174 217.138L137.784 210.237L82.4273 156.82L75.8174 163.721Z" fill="#E6E6E6"/>
<path d="M78.7183 152.9C77.1474 154.544 76.2903 156.746 76.335 159.024C76.3797 161.301 77.3225 163.467 78.9566 165.048L129.73 214.042C131.366 215.621 133.561 216.483 135.831 216.438C138.1 216.393 140.259 215.445 141.832 213.802C143.406 212.16 144.264 209.957 144.22 207.679C144.175 205.401 143.23 203.234 141.594 201.655L90.8206 152.661C89.1829 151.084 86.989 150.224 84.7201 150.269C82.4513 150.314 80.2928 151.26 78.7183 152.9Z" fill="#03183F"/>
<path d="M231.001 112.912L237.611 106.011C244.668 98.6427 248.52 88.7624 248.32 78.5435C248.119 68.3246 243.883 58.6042 236.542 51.5206C232.907 48.0132 228.619 45.2588 223.924 43.4145C219.229 41.5703 214.218 40.6723 209.176 40.772C198.996 40.9733 189.311 45.2258 182.254 52.5939L175.644 59.4952L231.001 112.912Z" fill="#E6E6E6"/>
<path d="M171.596 55.9295C170.025 57.5734 169.168 59.7755 169.213 62.0528C169.258 64.3301 170.2 66.4966 171.835 68.0771L222.608 117.071C224.245 118.648 226.439 119.509 228.707 119.463C230.976 119.417 233.133 118.469 234.706 116.827C236.278 115.186 237.137 112.984 237.093 110.707C237.049 108.43 236.106 106.264 234.472 104.684L183.699 55.6903C182.061 54.1135 179.867 53.2533 177.598 53.2981C175.329 53.343 173.171 54.2893 171.596 55.9295Z" fill="#03183F"/>
<path d="M193.014 169.153V165.173C193.014 165.173 210.32 155.402 224.381 165.173V168.791L193.014 169.153Z" fill="#03183F"/>
<path d="M350.569 169.153V165.173C350.569 165.173 367.875 155.402 381.936 165.173V168.791L350.569 169.153Z" fill="#03183F"/>
<path d="M244.932 168.792H227.986C227.986 168.792 223.66 163.725 209.239 164.087C194.817 164.449 191.933 168.792 191.933 168.792C191.933 168.792 177.692 178.381 174.447 190.324C174.447 190.324 156.961 242.977 156.6 284.232C156.24 325.487 172.103 331.277 180.396 332.362C188.688 333.448 203.47 332.001 217.891 295.45L224.021 274.099C224.021 274.099 225.102 261.433 238.082 269.395C251.061 277.356 262.598 265.052 262.598 265.052H311.271C311.271 265.052 327.495 275.185 342.277 267.224C342.277 267.224 348.045 259.624 353.453 285.318C353.453 285.318 370.038 338.153 395.636 332.724C421.234 327.296 418.35 283.146 418.35 283.146C418.35 283.146 414.925 215.655 400.864 191.771C400.864 191.771 387.344 166.982 378.33 165.896C378.33 165.896 358.861 162.278 351.29 165.535L346.964 169.153L244.932 168.792Z" fill="#E6E6E6"/>
<path d="M205.633 235.74C222.957 235.74 237 221.644 237 204.256C237 186.868 222.957 172.772 205.633 172.772C188.31 172.772 174.266 186.868 174.266 204.256C174.266 221.644 188.31 235.74 205.633 235.74Z" fill="#03183F"/>
<path d="M369.317 235.74C386.64 235.74 400.684 221.644 400.684 204.256C400.684 186.868 386.64 172.772 369.317 172.772C351.994 172.772 337.95 186.868 337.95 204.256C337.95 221.644 351.994 235.74 369.317 235.74Z" fill="#03183F"/>
<path d="M211.099 197.235L206.917 200.948C206.563 201.261 206.107 201.434 205.635 201.434C205.163 201.434 204.707 201.261 204.353 200.948L200.164 197.235C199.959 197.054 199.795 196.832 199.682 196.582C199.568 196.333 199.509 196.062 199.508 195.788V185.572C199.509 185.056 199.713 184.562 200.077 184.198C200.441 183.833 200.934 183.629 201.447 183.629H209.83C210.343 183.628 210.836 183.832 211.2 184.195C211.564 184.559 211.769 185.053 211.77 185.568V195.781C211.767 196.057 211.706 196.33 211.591 196.581C211.475 196.832 211.307 197.055 211.099 197.235Z" fill="#E6E6E6"/>
<path d="M211.099 211.273L206.917 207.564C206.563 207.251 206.107 207.078 205.635 207.078C205.163 207.078 204.707 207.251 204.353 207.564L200.164 211.277C199.959 211.458 199.795 211.68 199.682 211.93C199.568 212.179 199.509 212.45 199.508 212.724V222.929C199.507 223.445 199.71 223.939 200.072 224.304C200.435 224.669 200.927 224.875 201.44 224.876H209.83C210.343 224.877 210.836 224.673 211.2 224.309C211.564 223.946 211.769 223.452 211.77 222.936V212.728C211.767 212.451 211.706 212.179 211.591 211.928C211.475 211.677 211.307 211.454 211.099 211.273Z" fill="#E6E6E6"/>
<path d="M198.642 209.749L202.341 205.544C202.653 205.189 202.825 204.731 202.825 204.258C202.825 203.784 202.653 203.327 202.341 202.971L198.642 198.766C198.462 198.561 198.24 198.396 197.991 198.282C197.743 198.169 197.473 198.109 197.2 198.108H187.033C186.519 198.109 186.027 198.314 185.664 198.679C185.301 199.044 185.097 199.539 185.097 200.055V208.468C185.096 208.984 185.299 209.478 185.661 209.843C186.024 210.209 186.516 210.414 187.029 210.415H197.204C197.477 210.412 197.746 210.351 197.994 210.237C198.242 210.122 198.463 209.956 198.642 209.749Z" fill="#E6E6E6"/>
<path d="M212.628 209.749L208.936 205.541C208.623 205.186 208.451 204.728 208.451 204.254C208.451 203.78 208.623 203.323 208.936 202.968L212.635 198.763C212.815 198.557 213.037 198.392 213.286 198.278C213.534 198.165 213.804 198.106 214.077 198.104H224.244C224.758 198.103 225.25 198.307 225.614 198.671C225.978 199.034 226.183 199.528 226.184 200.044V208.465C226.185 208.98 225.982 209.475 225.619 209.84C225.257 210.205 224.765 210.411 224.251 210.412H214.081C213.805 210.411 213.534 210.352 213.283 210.238C213.032 210.124 212.809 209.957 212.628 209.749Z" fill="#E6E6E6"/>
<path d="M248.177 261.433C260.721 261.433 270.89 251.226 270.89 238.635C270.89 226.044 260.721 215.836 248.177 215.836C235.632 215.836 225.463 226.044 225.463 238.635C225.463 251.226 235.632 261.433 248.177 261.433Z" fill="#03183F"/>
<path d="M326.774 261.433C339.318 261.433 349.488 251.226 349.488 238.635C349.488 226.044 339.318 215.836 326.774 215.836C314.229 215.836 304.06 226.044 304.06 238.635C304.06 251.226 314.229 261.433 326.774 261.433Z" fill="#03183F"/>
<path d="M248.177 253.834C256.54 253.834 263.319 247.029 263.319 238.635C263.319 230.241 256.54 223.436 248.177 223.436C239.814 223.436 233.034 230.241 233.034 238.635C233.034 247.029 239.814 253.834 248.177 253.834Z" fill="#E6E6E6"/>
<path d="M248.177 249.129C246.109 249.129 244.087 248.514 242.368 247.361C240.648 246.208 239.308 244.569 238.517 242.651C237.726 240.733 237.519 238.623 237.922 236.587C238.325 234.552 239.321 232.682 240.783 231.214C242.246 229.746 244.109 228.747 246.137 228.342C248.165 227.937 250.267 228.145 252.178 228.939C254.088 229.733 255.721 231.078 256.87 232.804C258.019 234.53 258.632 236.559 258.632 238.635C258.629 241.417 257.526 244.085 255.566 246.052C253.606 248.02 250.949 249.126 248.177 249.129ZM248.177 228.864C246.251 228.864 244.369 229.437 242.768 230.511C241.168 231.584 239.92 233.11 239.183 234.896C238.446 236.681 238.254 238.646 238.629 240.541C239.005 242.436 239.932 244.177 241.293 245.544C242.655 246.91 244.389 247.841 246.278 248.218C248.166 248.595 250.123 248.401 251.902 247.662C253.681 246.922 255.201 245.67 256.271 244.063C257.34 242.456 257.911 240.567 257.911 238.635C257.908 236.044 256.882 233.561 255.057 231.729C253.232 229.897 250.757 228.867 248.177 228.864Z" fill="#03183F"/>
<path d="M326.774 253.834C335.137 253.834 341.916 247.029 341.916 238.635C341.916 230.241 335.137 223.436 326.774 223.436C318.411 223.436 311.631 230.241 311.631 238.635C311.631 247.029 318.411 253.834 326.774 253.834Z" fill="#E6E6E6"/>
<path d="M326.774 249.129C324.706 249.129 322.684 248.514 320.965 247.361C319.246 246.208 317.905 244.569 317.114 242.651C316.323 240.733 316.116 238.623 316.519 236.587C316.923 234.552 317.918 232.682 319.381 231.214C320.843 229.746 322.706 228.747 324.734 228.342C326.762 227.937 328.864 228.145 330.775 228.939C332.685 229.733 334.318 231.078 335.467 232.804C336.616 234.53 337.229 236.559 337.229 238.635C337.226 241.417 336.124 244.085 334.163 246.052C332.203 248.019 329.546 249.126 326.774 249.129ZM326.774 228.864C324.848 228.864 322.966 229.437 321.366 230.511C319.765 231.584 318.517 233.11 317.78 234.896C317.043 236.681 316.851 238.646 317.226 240.541C317.602 242.436 318.529 244.177 319.89 245.544C321.252 246.91 322.986 247.841 324.875 248.218C326.763 248.595 328.72 248.401 330.499 247.662C332.278 246.922 333.798 245.67 334.868 244.063C335.937 242.456 336.508 240.567 336.508 238.635C336.505 236.044 335.479 233.561 333.654 231.729C331.829 229.897 329.355 228.867 326.774 228.864Z" fill="#03183F"/>
<path d="M288.196 247.682C291.78 247.682 294.686 244.765 294.686 241.168C294.686 237.57 291.78 234.654 288.196 234.654C284.612 234.654 281.707 237.57 281.707 241.168C281.707 244.765 284.612 247.682 288.196 247.682Z" fill="#03183F"/>
<path d="M278.278 220.848C279.06 220.848 279.695 220.212 279.695 219.426C279.695 218.641 279.06 218.004 278.278 218.004C277.495 218.004 276.861 218.641 276.861 219.426C276.861 220.212 277.495 220.848 278.278 220.848Z" fill="#03183F"/>
<path d="M283.585 220.848C284.367 220.848 285.002 220.212 285.002 219.426C285.002 218.641 284.367 218.004 283.585 218.004C282.802 218.004 282.168 218.641 282.168 219.426C282.168 220.212 282.802 220.848 283.585 220.848Z" fill="#03183F"/>
<path d="M282.878 227.597C283.661 227.597 284.295 226.961 284.295 226.175C284.295 225.39 283.661 224.753 282.878 224.753C282.096 224.753 281.461 225.39 281.461 226.175C281.461 226.961 282.096 227.597 282.878 227.597Z" fill="#03183F"/>
<path d="M287.836 227.778C288.632 227.778 289.278 227.13 289.278 226.331C289.278 225.531 288.632 224.883 287.836 224.883C287.039 224.883 286.394 225.531 286.394 226.331C286.394 227.13 287.039 227.778 287.836 227.778Z" fill="#03183F"/>
<path d="M292.786 227.597C293.568 227.597 294.203 226.961 294.203 226.175C294.203 225.39 293.568 224.753 292.786 224.753C292.003 224.753 291.369 225.39 291.369 226.175C291.369 226.961 292.003 227.597 292.786 227.597Z" fill="#03183F"/>
<path d="M280.755 224.402C281.537 224.402 282.172 223.765 282.172 222.98C282.172 222.194 281.537 221.558 280.755 221.558C279.972 221.558 279.338 222.194 279.338 222.98C279.338 223.765 279.972 224.402 280.755 224.402Z" fill="#03183F"/>
<path d="M285.312 224.521C286.108 224.521 286.754 223.873 286.754 223.074C286.754 222.274 286.108 221.626 285.312 221.626C284.515 221.626 283.87 222.274 283.87 223.074C283.87 223.873 284.515 224.521 285.312 224.521Z" fill="#03183F"/>
<path d="M289.999 224.521C290.795 224.521 291.441 223.873 291.441 223.074C291.441 222.274 290.795 221.626 289.999 221.626C289.202 221.626 288.557 222.274 288.557 223.074C288.557 223.873 289.202 224.521 289.999 224.521Z" fill="#03183F"/>
<path d="M294.909 224.402C295.692 224.402 296.326 223.765 296.326 222.98C296.326 222.194 295.692 221.558 294.909 221.558C294.127 221.558 293.493 222.194 293.493 222.98C293.493 223.765 294.127 224.402 294.909 224.402Z" fill="#03183F"/>
<path d="M287.836 220.903C288.632 220.903 289.278 220.254 289.278 219.455C289.278 218.656 288.632 218.008 287.836 218.008C287.039 218.008 286.394 218.656 286.394 219.455C286.394 220.254 287.039 220.903 287.836 220.903Z" fill="#03183F"/>
<path d="M292.883 220.903C293.68 220.903 294.325 220.254 294.325 219.455C294.325 218.656 293.68 218.008 292.883 218.008C292.087 218.008 291.441 218.656 291.441 219.455C291.441 220.254 292.087 220.903 292.883 220.903Z" fill="#03183F"/>
<path d="M297.033 220.848C297.815 220.848 298.45 220.212 298.45 219.426C298.45 218.641 297.815 218.004 297.033 218.004C296.25 218.004 295.616 218.641 295.616 219.426C295.616 220.212 296.25 220.848 297.033 220.848Z" fill="#03183F"/>
<path d="M234.296 171.876C233.629 171.877 232.99 172.143 232.518 172.616C232.046 173.089 231.781 173.731 231.78 174.401V182C231.781 182.67 232.046 183.312 232.518 183.785C232.99 184.258 233.629 184.524 234.296 184.525H236.099C236.765 184.524 237.405 184.258 237.876 183.785C238.348 183.312 238.613 182.67 238.614 182V174.401C238.613 173.731 238.348 173.089 237.876 172.616C237.405 172.143 236.765 171.877 236.099 171.876H234.296Z" fill="#03183F"/>
<path d="M339.573 171.876C338.906 171.876 338.266 172.143 337.795 172.616C337.323 173.089 337.058 173.731 337.057 174.401V182C337.058 182.67 337.323 183.312 337.795 183.785C338.266 184.258 338.906 184.524 339.573 184.525H341.375C342.042 184.524 342.682 184.258 343.153 183.785C343.625 183.312 343.89 182.67 343.891 182V174.401C343.89 173.731 343.625 173.089 343.153 172.616C342.682 172.143 342.042 171.876 341.375 171.876H339.573Z" fill="#03183F"/>
<path d="M369.678 193.761C374.457 193.761 378.331 189.873 378.331 185.076C378.331 180.279 374.457 176.391 369.678 176.391C364.899 176.391 361.025 180.279 361.025 185.076C361.025 189.873 364.899 193.761 369.678 193.761Z" fill="#E6E6E6"/>
<path d="M351.29 212.217C356.069 212.217 359.943 208.329 359.943 203.532C359.943 198.736 356.069 194.847 351.29 194.847C346.511 194.847 342.637 198.736 342.637 203.532C342.637 208.329 346.511 212.217 351.29 212.217Z" fill="#E6E6E6"/>
<path d="M388.786 211.132C393.565 211.132 397.439 207.243 397.439 202.447C397.439 197.65 393.565 193.761 388.786 193.761C384.007 193.761 380.133 197.65 380.133 202.447C380.133 207.243 384.007 211.132 388.786 211.132Z" fill="#E6E6E6"/>
<path d="M371.12 230.312C375.899 230.312 379.773 226.423 379.773 221.626C379.773 216.83 375.899 212.941 371.12 212.941C366.341 212.941 362.467 216.83 362.467 221.626C362.467 226.423 366.341 230.312 371.12 230.312Z" fill="#E6E6E6"/>
<path d="M250.61 166.809C248.677 166.812 246.823 167.584 245.456 168.956C244.089 170.328 243.32 172.189 243.318 174.129V206.518C243.32 208.458 244.089 210.319 245.456 211.691C246.823 213.063 248.677 213.835 250.61 213.838H324.7C326.634 213.835 328.487 213.063 329.855 211.691C331.222 210.319 331.991 208.458 331.993 206.518V174.129C331.991 172.189 331.222 170.328 329.855 168.956C328.487 167.584 326.634 166.812 324.7 166.809H250.61Z" fill="#03183F"/>
<path d="M375.556 189.057H363.822L369.487 179.31L375.556 189.057ZM365.078 188.333H374.255L369.508 180.71L365.078 188.333Z" fill="#03183F"/>
<path d="M356.158 207.875H346.423V199.19H356.158V207.875ZM347.144 207.151H355.437V199.913H347.144V207.151Z" fill="#03183F"/>
<path d="M388.786 207.875C387.717 207.875 386.671 207.556 385.782 206.96C384.892 206.363 384.199 205.516 383.79 204.524C383.38 203.532 383.273 202.441 383.482 201.388C383.691 200.335 384.206 199.367 384.962 198.608C385.718 197.849 386.682 197.332 387.731 197.123C388.78 196.913 389.868 197.021 390.856 197.431C391.844 197.842 392.689 198.538 393.283 199.431C393.877 200.323 394.194 201.373 394.194 202.446C394.193 203.886 393.622 205.265 392.609 206.283C391.595 207.301 390.22 207.873 388.786 207.875ZM388.786 197.742C387.859 197.742 386.953 198.018 386.182 198.535C385.411 199.052 384.811 199.787 384.456 200.646C384.101 201.506 384.008 202.452 384.189 203.364C384.37 204.277 384.816 205.115 385.472 205.773C386.127 206.431 386.963 206.879 387.872 207.061C388.781 207.242 389.723 207.149 390.58 206.793C391.436 206.437 392.168 205.834 392.683 205.06C393.198 204.286 393.473 203.377 393.473 202.446C393.472 201.199 392.978 200.003 392.099 199.121C391.22 198.24 390.029 197.743 388.786 197.742Z" fill="#03183F"/>
<path d="M367.229 217.299L366.719 217.811L374.831 225.953L375.341 225.442L367.229 217.299Z" fill="#03183F"/>
<path d="M375.016 217.293L366.725 225.256L367.223 225.779L375.515 217.816L375.016 217.293Z" fill="#03183F"/>
<path d="M80.6379 84.1163C60.9526 89.5636 39.3964 93.6643 31.6724 87.3026C35.9013 80.2361 38.3405 73.2711 38.5474 66.4326C38.594 63.3037 39.8566 60.3168 42.0659 58.1089C43.5285 56.6906 45.2939 55.6256 47.2281 54.9947C49.1622 54.3639 51.2141 54.1838 53.228 54.4682L58.3368 55.1878C58.5088 55.212 58.6799 55.2395 58.8501 55.2703C61.3022 55.7366 63.5473 56.962 65.2702 58.7744C66.9931 60.5868 68.1073 62.8953 68.4564 65.3758C69.5327 72.791 73.1522 79.2105 80.6379 84.1163Z" fill="#03183F"/>
<path d="M99.6268 154.467L107.28 156.051C107.864 156.171 108.415 156.422 108.891 156.783C109.367 157.144 109.757 157.607 110.033 158.138C110.309 158.669 110.463 159.256 110.485 159.854C110.507 160.453 110.395 161.049 110.159 161.599C109.931 162.131 109.591 162.607 109.163 162.995C108.736 163.383 108.229 163.674 107.68 163.849C107.13 164.023 106.549 164.077 105.976 164.006C105.404 163.935 104.853 163.742 104.362 163.439L92.6559 156.212L72.7724 109.295L83.071 106.305L99.6268 154.467Z" fill="#A0616A"/>
<path d="M45.1101 216.03L39.3156 217.722L34.9294 208.629L39.3897 206.296L45.1101 216.03Z" fill="#A0616A"/>
<path d="M42.1659 254.987L35.0562 253.097L36.1692 240.837L42.2878 241.215L42.1659 254.987Z" fill="#A0616A"/>
<path d="M42.9074 207.531L35.3772 212.505L6.41556 179.623C5.78735 178.91 5.32345 178.067 5.05686 177.153C4.79028 176.239 4.72756 175.278 4.87316 174.337C5.01877 173.397 5.36911 172.5 5.89929 171.71C6.42946 170.921 7.12643 170.259 7.94061 169.77L44.0197 148.132L49.5457 164.065L30.7592 181.76L42.9074 207.531Z" fill="#03183F"/>
<path d="M49.2488 224.743C49.23 224.767 49.2111 224.792 49.1921 224.817C48.7108 227.645 47.8656 230.225 45.9779 232.093C45.4183 233.359 44.4134 234.375 43.1552 234.945C41.8969 235.516 40.4734 235.601 39.1565 235.185C37.9146 234.792 36.8471 233.979 36.1366 232.884C35.4261 231.788 35.1168 230.479 35.2615 229.181L36.6686 216.557C40.044 215.778 42.6183 213.851 43.9213 210.103L47.2017 212.345C48.1725 213.004 48.9994 213.854 49.6321 214.843C50.2647 215.833 50.6898 216.942 50.8814 218.102C51.0729 219.262 51.027 220.449 50.7463 221.591C50.4656 222.733 49.9561 223.805 49.2488 224.743Z" fill="#03183F"/>
<path d="M52.8186 81.4129C59.2196 81.4129 64.4087 76.2045 64.4087 69.7796C64.4087 63.3547 59.2196 58.1463 52.8186 58.1463C46.4176 58.1463 41.2286 63.3547 41.2286 69.7796C41.2286 76.2045 46.4176 81.4129 52.8186 81.4129Z" fill="#A0616A"/>
<path d="M62.8556 88.3765L44.584 103.565L43.1609 97.3133L46.3501 92.4337C47.2352 87.6462 46.6638 82.3669 45.1429 76.767L57.0639 76.7779C57.5785 81.3033 59.3338 85.2511 62.8556 88.3765Z" fill="#A0616A"/>
<path d="M67.9998 128.219L43.333 135.76L41.414 126.955C36.7913 120.725 34.7818 115.038 37.8061 110.399L36.2842 103.416C40.6499 99.9654 44.083 96.4354 45.9681 92.7727L61.1447 86.8204L72.3016 87.5094L75.5961 98.5912L67.9998 128.219Z" fill="#9C0332"/>
<path d="M85.5239 107.544C80.2659 107.488 75.12 109.071 70.7958 112.074L72.3016 87.5094C73.83 87.7143 75.279 88.3151 76.5059 89.2526C77.7329 90.1901 78.6955 91.4321 79.2991 92.8564L85.5239 107.544Z" fill="#9C0332"/>
<path d="M42.8302 244.149L35.001 242.215L36.1534 175.443L46.6665 163.887L44.3132 149.237L42.7904 132.826L68.4704 126.435C77.1504 142.254 82.3968 156.637 74.7386 165.621L42.8302 244.149Z" fill="#03183F"/>
<path d="M41.032 266.694C40.9968 266.708 40.9617 266.722 40.9265 266.735C38.6531 269.385 36.1553 271.545 33.0149 272.305C31.6374 273.275 29.9523 273.701 28.2814 273.503C26.6105 273.305 25.0709 272.496 23.9564 271.231C22.9054 270.038 22.3001 268.515 22.244 266.923C22.1879 265.331 22.6845 263.77 23.6489 262.505L33.0222 250.211C37.0341 251.527 40.9283 251.139 44.6358 248.048L46.6568 252.459C47.2582 253.758 47.5894 255.167 47.6302 256.6C47.671 258.032 47.4206 259.458 46.8943 260.79C46.3679 262.123 45.5766 263.333 44.5687 264.348C43.5608 265.363 42.3574 266.162 41.032 266.694Z" fill="#03183F"/>
<path d="M12.4318 162.498L5.55987 168.404C4.98962 168.894 4.55184 169.52 4.28714 170.226C4.02245 170.931 3.93938 171.692 4.04566 172.437C4.15193 173.183 4.4441 173.89 4.89509 174.493C5.34607 175.095 5.94127 175.573 6.62552 175.884C7.65559 176.35 8.82377 176.407 9.8939 176.042C10.964 175.677 11.8563 174.919 12.3903 173.919L17.3597 164.616L40.1491 122.872L31.578 121.255L12.4318 162.498Z" fill="#A0616A"/>
<path d="M41.5223 124.045C37.0711 122.696 32.9015 121.902 29.6678 122.95C30.3457 114.531 31.7427 107.01 36.2842 103.416L42.7402 104.177L41.5223 124.045Z" fill="#9C0332"/>
<path d="M65.7571 67.0821L40.9682 65.5511L41.2733 60.5749C49.9265 54.7183 58.1895 55.2286 66.0622 62.1058L65.7571 67.0821Z" fill="#03183F"/>
</g>
<defs>
<filter id="filter0_d_2203_44" x="0" y="0.5" width="493" height="341" filterUnits="userSpaceOnUse" color-interpolation-filters="sRGB">
<feFlood flood-opacity="0" result="BackgroundImageFix"/>
<feColorMatrix in="SourceAlpha" type="matrix" values="0 0 0 0 0 0 0 0 0 0 0 0 0 0 0 0 0 0 127 0" result="hardAlpha"/>
<feOffset dy="4"/>
<feGaussianBlur stdDeviation="2"/>
<feComposite in2="hardAlpha" operator="out"/>
<feColorMatrix type="matrix" values="0 0 0 0 0 0 0 0 0 0 0 0 0 0 0 0 0 0 0.25 0"/>
<feBlend mode="normal" in2="BackgroundImageFix" result="effect1_dropShadow_2203_44"/>
<feBlend mode="normal" in="SourceGraphic" in2="effect1_dropShadow_2203_44" result="shape"/>
</filter>
<clipPath id="clip0_2203_44">
<rect width="485" height="333" fill="white" transform="translate(4 0.5)"/>
</clipPath>
</defs>
</svg>
